<svg xmlns="http://www.w3.org/2000/svg" xmlns:xlink="http://www.w3.org/1999/xlink" preserveAspectRatio="xMidYMid" width="1160" height="421" viewBox="0 0 1160 421">
  <defs>
    <style>

      .cls-2 {
        fill: #000000;
      }
    </style>
  </defs>
  <path d="M1117.391,240.324 C1089.089,266.691 1053.405,279.875 1010.335,279.875 C969.216,279.875 934.960,266.691 907.570,240.324 C880.178,213.957 866.484,180.919 866.484,141.203 C866.484,100.450 880.275,66.725 907.863,40.031 C935.448,13.341 970.320,-0.008 1012.480,-0.008 C1054.637,-0.008 1089.739,13.341 1117.781,40.031 C1145.821,66.725 1159.844,100.187 1159.844,140.422 C1159.844,180.656 1145.693,213.957 1117.391,240.324 ZM1089.070,66.691 C1068.709,46.965 1043.700,37.102 1014.043,37.102 C982.820,37.102 957.161,46.867 937.062,66.398 C916.964,85.930 906.914,110.866 906.914,141.203 C906.914,170.631 916.994,195.109 937.160,214.641 C957.323,234.172 982.561,243.938 1012.871,243.938 C1043.309,243.938 1068.709,233.977 1089.070,214.055 C1109.429,194.133 1119.609,169.328 1119.609,139.641 C1119.609,110.734 1109.429,86.418 1089.070,66.691 ZM843.665,291.331 C843.665,291.331 861.976,291.331 861.976,291.331 C861.976,291.331 861.976,419.230 861.976,419.230 C861.976,419.230 843.665,419.230 843.665,419.230 C843.665,419.230 843.665,291.331 843.665,291.331 ZM797.832,266.398 C783.965,273.302 766.613,276.750 745.781,276.750 C745.781,276.750 653.398,276.750 653.398,276.750 C653.398,276.750 653.398,3.898 653.398,3.898 C653.398,3.898 724.883,3.898 724.883,3.898 C747.408,3.898 764.986,6.926 777.617,12.980 C790.245,19.035 799.883,27.370 806.523,37.980 C813.164,48.594 816.484,60.866 816.484,74.797 C816.484,101.622 802.617,120.827 774.883,132.414 C794.805,136.192 810.656,144.395 822.441,157.023 C834.224,169.655 840.117,184.758 840.117,202.336 C840.117,216.270 836.534,228.703 829.375,239.641 C822.213,250.578 811.699,259.498 797.832,266.398 ZM776.055,77.922 C776.055,51.750 759.386,38.664 726.055,38.664 C726.055,38.664 692.461,38.664 692.461,38.664 C692.461,38.664 692.461,120.695 692.461,120.695 C692.461,120.695 718.438,120.695 718.438,120.695 C739.269,120.695 754.082,116.725 762.871,108.781 C771.660,100.841 776.055,90.553 776.055,77.922 ZM792.363,175.969 C787.480,169.069 780.547,163.927 771.563,160.539 C762.578,157.155 748.384,155.461 728.984,155.461 C728.984,155.461 692.461,155.461 692.461,155.461 C692.461,155.461 692.461,241.984 692.461,241.984 C692.461,241.984 730.937,241.984 730.937,241.984 C752.291,241.984 766.777,240.324 774.395,237.004 C782.012,233.684 788.130,228.508 792.754,221.477 C797.374,214.445 799.687,206.895 799.687,198.820 C799.687,190.489 797.246,182.872 792.363,175.969 ZM624.259,398.677 C622.153,402.004 619.574,404.980 616.523,407.603 C606.391,416.332 593.146,420.695 576.789,420.695 C560.126,420.695 546.760,416.362 536.689,407.695 C533.636,405.010 531.058,402.004 528.953,398.677 C526.847,395.351 525.108,391.277 523.734,386.455 C522.361,381.634 521.674,374.065 521.674,363.750 C521.674,363.750 521.674,291.331 521.674,291.331 C521.674,291.331 540.076,291.331 540.076,291.331 C540.076,291.331 540.076,363.933 540.076,363.933 C540.076,375.957 541.450,384.319 544.196,389.018 C546.943,393.719 551.123,397.487 556.739,400.325 C562.354,403.163 568.976,404.582 576.606,404.582 C587.469,404.582 596.320,401.744 603.156,396.068 C606.757,393.016 609.350,389.416 610.938,385.264 C612.525,381.114 613.319,374.003 613.319,363.933 C613.319,363.933 613.319,291.331 613.319,291.331 C613.319,291.331 631.721,291.331 631.721,291.331 C631.721,291.331 631.721,363.933 631.721,363.933 C631.721,373.760 631.003,381.176 629.569,386.180 C628.134,391.185 626.365,395.351 624.259,398.677 ZM378.984,66.612 C378.984,66.612 378.984,276.750 378.984,276.750 C378.984,276.750 342.266,276.750 342.266,276.750 C342.266,276.750 342.266,3.898 342.266,3.898 C342.266,3.898 373.906,3.898 373.906,3.898 C373.906,3.898 557.891,215.822 557.891,215.822 C557.891,215.822 557.891,3.898 557.891,3.898 C557.891,3.898 595.000,3.898 595.000,3.898 C595.000,3.898 595.000,276.750 595.000,276.750 C595.000,276.750 561.406,276.750 561.406,276.750 C561.406,276.750 378.984,66.612 378.984,66.612 ZM393.684,291.331 C393.684,291.331 411.079,291.331 411.079,291.331 C411.079,291.331 411.079,419.230 411.079,419.230 C411.079,419.230 395.332,419.230 395.332,419.230 C395.332,419.230 309.821,320.728 309.821,320.728 C309.821,320.728 309.821,419.230 309.821,419.230 C309.821,419.230 292.609,419.230 292.609,419.230 C292.609,419.230 292.609,291.331 292.609,291.331 C292.609,291.331 307.441,291.331 307.441,291.331 C307.441,291.331 393.684,390.670 393.684,390.670 C393.684,390.670 393.684,291.331 393.684,291.331 ZM241.484,3.898 C241.484,3.898 280.547,3.898 280.547,3.898 C280.547,3.898 280.547,276.750 280.547,276.750 C280.547,276.750 241.484,276.750 241.484,276.750 C241.484,276.750 241.484,3.898 241.484,3.898 ZM269.538,355.327 C269.538,374.187 262.905,389.796 249.638,402.156 C236.372,414.516 219.645,420.695 199.456,420.695 C180.181,420.695 164.124,414.516 151.285,402.156 C138.445,389.796 132.026,374.310 132.026,355.693 C132.026,336.590 138.490,320.781 151.422,308.269 C164.353,295.757 180.699,289.500 200.462,289.500 C220.223,289.500 236.676,295.757 249.821,308.269 C262.965,320.781 269.538,336.467 269.538,355.327 ZM201.194,306.895 C186.558,306.895 174.531,311.473 165.109,320.628 C155.688,329.783 150.977,341.472 150.977,355.693 C150.977,369.487 155.702,380.961 165.155,390.117 C174.606,399.272 186.437,403.850 200.645,403.850 C214.913,403.850 226.819,399.180 236.363,389.842 C245.906,380.504 250.678,368.876 250.678,354.960 C250.678,341.411 245.906,330.012 236.363,320.766 C226.819,311.519 215.096,306.895 201.194,306.895 ZM152.632,258.772 C152.242,258.122 151.461,257.014 150.292,255.449 C150.292,255.449 142.684,244.700 142.684,244.700 C142.684,244.700 130.590,224.769 130.590,224.769 C130.590,224.769 117.522,203.468 117.522,203.468 C109.459,192.265 102.071,183.348 95.357,176.719 C88.643,170.091 82.579,165.312 77.172,162.388 C71.761,159.465 62.670,158.000 49.895,158.000 C49.895,158.000 39.727,158.000 39.727,158.000 C39.727,158.000 39.727,276.750 39.727,276.750 C39.727,276.750 0.664,276.750 0.664,276.750 C0.664,276.750 0.664,3.898 0.664,3.898 C0.664,3.898 69.023,3.898 69.023,3.898 C96.627,3.898 118.535,10.734 134.746,24.406 C150.957,38.078 159.063,56.569 159.063,79.875 C159.063,95.762 155.089,109.498 147.148,121.086 C139.205,132.677 127.812,141.334 112.969,147.063 C121.691,152.794 130.220,160.606 138.555,170.500 C146.886,180.397 158.605,197.648 173.711,222.258 C183.214,237.755 190.831,249.406 196.562,257.219 C196.562,257.219 211.016,276.750 211.016,276.750 C211.016,276.750 164.531,276.750 164.531,276.750 C164.531,276.750 152.632,258.772 152.632,258.772 ZM118.633,79.484 C118.633,70.891 116.353,63.112 111.797,56.145 C107.238,49.180 100.826,44.264 92.559,41.398 C84.288,38.536 70.586,37.102 51.445,37.102 C51.445,37.102 39.727,37.102 39.727,37.102 C39.727,37.102 39.727,123.234 39.727,123.234 C39.727,123.234 54.570,123.234 54.570,123.234 C74.361,123.234 87.935,121.544 95.293,118.156 C102.648,114.772 108.379,109.660 112.480,102.824 C116.582,95.988 118.633,88.209 118.633,79.484 ZM69.038,289.683 C82.464,289.683 97.387,293.194 113.807,300.212 C113.807,300.212 113.807,319.896 113.807,319.896 C98.852,311.351 84.235,307.078 69.953,307.078 C55.305,307.078 43.142,311.702 33.469,320.949 C23.795,330.195 18.958,341.777 18.958,355.693 C18.958,369.732 23.719,381.268 33.240,390.300 C42.762,399.333 54.938,403.850 69.770,403.850 C85.272,403.850 100.409,399.089 115.180,389.567 C115.180,389.567 115.180,409.709 115.180,409.709 C101.752,417.033 86.250,420.695 68.671,420.695 C54.389,420.695 42.273,417.827 32.325,412.089 C22.376,406.353 14.502,398.448 8.704,388.377 C2.905,378.306 0.007,367.412 0.007,355.693 C0.007,337.078 6.644,321.422 19.920,308.726 C33.195,296.032 49.567,289.683 69.038,289.683 ZM456.214,357.188 C447.485,351.858 441.275,346.615 437.583,341.456 C433.890,336.299 432.044,330.364 432.044,323.649 C432.044,313.579 435.538,305.400 442.527,299.113 C449.515,292.828 458.594,289.683 469.764,289.683 C480.444,289.683 490.240,292.682 499.152,298.678 C499.152,298.678 499.152,319.461 499.152,319.461 C489.936,310.596 480.018,306.163 469.398,306.163 C463.415,306.163 458.503,307.546 454.658,310.313 C450.813,313.079 448.890,316.620 448.890,320.936 C448.890,324.767 450.306,328.354 453.139,331.697 C455.971,335.042 460.526,338.552 466.803,342.230 C466.803,342.230 480.787,350.506 480.787,350.506 C496.387,359.824 504.188,371.685 504.188,386.088 C504.188,396.342 500.755,404.674 493.888,411.082 C487.022,417.491 478.095,420.695 467.109,420.695 C454.475,420.695 442.969,416.813 432.594,409.045 C432.594,409.045 432.594,385.791 432.594,385.791 C442.481,398.319 453.925,404.582 466.926,404.582 C472.662,404.582 477.439,402.986 481.254,399.793 C485.068,396.600 486.976,392.601 486.976,387.796 C486.976,380.012 481.360,372.627 470.130,365.642 C470.130,365.642 456.214,357.188 456.214,357.188 ZM675.391,402.568 C675.391,402.568 732.978,402.568 732.978,402.568 C732.978,402.568 732.978,419.230 732.978,419.230 C732.978,419.230 657.081,419.230 657.081,419.230 C657.081,419.230 657.081,291.331 657.081,291.331 C657.081,291.331 675.391,291.331 675.391,291.331 C675.391,291.331 675.391,402.568 675.391,402.568 ZM719.337,291.148 C719.337,291.148 826.179,291.148 826.179,291.148 C826.179,291.148 826.179,307.445 826.179,307.445 C826.179,307.445 781.593,307.445 781.593,307.445 C781.593,307.445 781.593,419.230 781.593,419.230 C781.593,419.230 763.190,419.230 763.190,419.230 C763.190,419.230 763.190,307.445 763.190,307.445 C763.190,307.445 719.337,307.445 719.337,307.445 C719.337,307.445 719.337,291.148 719.337,291.148 ZM991.981,390.670 C991.981,390.670 991.981,291.331 991.981,291.331 C991.981,291.331 1009.376,291.331 1009.376,291.331 C1009.376,291.331 1009.376,419.230 1009.376,419.230 C1009.376,419.230 993.629,419.230 993.629,419.230 C993.629,419.230 908.118,320.728 908.118,320.728 C908.118,320.728 908.118,419.230 908.118,419.230 C908.118,419.230 890.906,419.230 890.906,419.230 C890.906,419.230 890.906,291.331 890.906,291.331 C890.906,291.331 905.738,291.331 905.738,291.331 C905.738,291.331 991.981,390.670 991.981,390.670 ZM1101.203,289.683 C1108.404,289.683 1115.241,290.462 1121.711,292.018 C1128.180,293.574 1136.359,296.428 1146.247,300.578 C1146.247,300.578 1146.247,319.255 1146.247,319.255 C1130.988,310.406 1115.852,305.980 1100.837,305.980 C1086.859,305.980 1075.079,310.740 1065.498,320.262 C1055.915,329.783 1051.124,341.472 1051.124,355.327 C1051.124,369.854 1055.915,381.725 1065.498,390.941 C1075.079,400.157 1087.409,404.765 1102.485,404.765 C1109.809,404.765 1118.567,403.087 1128.760,399.730 C1128.760,399.730 1130.500,399.180 1130.500,399.180 C1130.500,399.180 1130.500,372.539 1130.500,372.539 C1130.500,372.539 1105.872,372.539 1105.872,372.539 C1105.872,372.539 1105.872,356.242 1105.872,356.242 C1105.872,356.242 1148.811,356.242 1148.811,356.242 C1148.811,356.242 1148.811,410.441 1148.811,410.441 C1133.063,417.278 1117.438,420.695 1101.936,420.695 C1080.755,420.695 1063.834,414.516 1051.170,402.156 C1038.504,389.796 1032.172,374.553 1032.172,356.425 C1032.172,337.322 1038.733,321.422 1051.856,308.726 C1064.978,296.032 1081.428,289.683 1101.203,289.683 Z" id="path-1" class="cls-2" fill-rule="evenodd"/>
</svg>
